<?xml version="1.0" standalone="no"?>
<!DOCTYPE svg PUBLIC "-//W3C//DTD SVG 20010904//EN"
 "http://www.w3.org/TR/2001/REC-SVG-20010904/DTD/svg10.dtd">
<svg version="1.0" xmlns="http://www.w3.org/2000/svg"
 width="500.000000pt" height="500.000000pt" viewBox="0 0 500.000000 500.000000"
 preserveAspectRatio="xMidYMid meet">

<g transform="translate(0.000000,500.000000) scale(0.100000,-0.100000)"
fill="#000000" stroke="none">
<path d="M1672 4970 c-18 -11 -45 -20 -61 -20 -36 0 -65 -32 -65 -74 0 -37 26
-84 52 -93 37 -13 47 -31 44 -76 -4 -43 -6 -45 -40 -52 -92 -17 -191 -94 -237
-184 -22 -44 -25 -63 -25 -151 l0 -100 65 -32 65 -32 -37 -21 c-36 -19 -61
-20 -384 -25 l-346 -5 -41 -27 c-22 -15 -53 -49 -68 -75 -23 -39 -29 -61 -32
-135 l-5 -89 -21 20 c-21 20 -34 21 -234 21 l-212 0 0 -425 0 -425 25 0 c21 0
25 -5 25 -30 l0 -30 210 0 210 0 0 -145 0 -145 -82 0 c-92 0 -149 -21 -183
-68 -18 -25 -20 -45 -23 -269 -2 -196 -6 -244 -17 -253 -19 -16 -19 -87 0
-120 8 -14 15 -47 16 -75 l2 -50 4 43 c4 43 5 44 24 26 24 -22 25 -61 2 -68
-10 -2 -37 -8 -60 -11 -35 -6 -51 -16 -88 -58 -89 -102 -135 -232 -150 -429
-9 -117 7 -165 32 -98 8 20 18 30 32 30 20 0 21 5 21 106 0 104 1 108 38 176
l37 70 9 -31 c6 -20 5 -79 -3 -159 -6 -70 -16 -226 -22 -347 -8 -177 -16 -250
-40 -375 -17 -85 -33 -178 -36 -206 -5 -60 -9 -59 131 -70 83 -6 88 -6 84 12
-2 10 -24 30 -50 44 -26 14 -49 28 -52 31 -3 3 16 75 43 160 26 85 56 200 66
256 10 57 20 101 22 99 3 -2 13 -37 24 -78 16 -62 19 -110 19 -310 l0 -238
110 0 c61 0 110 3 110 8 -1 18 -19 30 -69 47 l-53 17 5 37 c3 20 16 116 28
214 21 175 21 181 5 325 -10 81 -20 236 -23 345 l-6 197 657 0 c466 0 664 3
679 11 12 6 36 24 52 40 30 28 31 28 178 31 l147 3 0 -188 0 -187 348 2 347 3
3 181 2 180 30 -4 30 -4 0 -209 0 -209 -349 0 -350 0 -4 28 c-4 20 -4 18 -3
-8 l1 -35 355 0 355 0 3 222 2 223 671 0 672 0 -7 -87 c-4 -49 -11 -194 -16
-323 -9 -230 -9 -240 18 -421 l28 -186 -63 -28 c-35 -15 -63 -31 -63 -35 0
-14 91 -20 165 -13 l70 8 0 260 c0 241 14 424 34 447 4 5 17 -56 30 -135 12
-78 43 -213 68 -300 l45 -158 -47 -50 c-72 -77 -48 -84 91 -27 86 35 84 21 38
243 -29 140 -34 190 -42 400 -5 132 -7 324 -4 428 l4 187 42 2 41 1 -37 4
c-33 4 -38 8 -38 30 l0 25 33 -20 c17 -11 44 -40 59 -64 26 -41 28 -52 34
-211 6 -131 10 -167 20 -163 7 3 22 -10 35 -30 11 -19 26 -33 33 -31 16 6 12
314 -6 397 l-14 65 30 20 c16 11 37 36 47 55 18 33 19 71 19 675 0 707 2 681
-63 729 -26 19 -46 21 -235 26 l-207 5 -5 272 c-5 256 -6 273 -26 300 -11 15
-34 37 -50 48 -26 18 -29 26 -29 73 l0 52 73 0 c81 0 132 -17 175 -58 61 -57
62 -63 67 -367 l6 -280 2 275 c1 249 0 279 -17 315 -40 86 -110 125 -224 125
-40 0 -77 4 -83 9 -11 11 -190 31 -274 31 -38 0 -60 4 -60 11 0 9 112 229 125
247 1 1 32 10 69 20 37 9 68 22 69 27 3 15 -166 31 -171 16 -2 -6 -16 -24 -31
-39 -15 -15 -60 -73 -100 -129 -51 -73 -78 -103 -92 -103 -18 0 -114 13 -197
26 l-33 5 21 26 c28 36 26 88 -5 118 -21 22 -33 25 -92 25 -79 0 -118 19 -152
73 -27 44 -67 62 -105 47 -39 -14 -91 -13 -133 5 -60 25 -97 20 -131 -19 -43
-49 -47 -70 -20 -99 13 -13 31 -36 41 -50 10 -15 35 -32 57 -38 34 -10 39 -15
34 -33 -4 -12 -7 -25 -7 -31 0 -41 6 -59 29 -80 l25 -24 -43 -5 c-218 -27
-494 -25 -303 2 44 6 112 15 150 18 70 7 135 38 135 66 0 7 -13 -1 -29 -16
-26 -25 -41 -29 -178 -46 -154 -20 -183 -26 -183 -40 0 -9 50 -20 91 -20 16 0
29 -4 29 -9 0 -5 8 -12 18 -14 9 -3 -17 -4 -58 -4 l-75 2 -47 110 c-26 61 -49
114 -51 119 -1 4 -10 7 -20 5 -14 -3 -10 -18 28 -103 25 -55 45 -101 45 -103
0 -1 -149 -3 -331 -3 l-330 0 -37 27 c-20 15 -41 30 -45 34 -5 3 14 20 42 38
58 35 59 40 41 165 -23 159 -115 265 -245 283 -41 5 -45 8 -51 39 -5 29 -1 40
30 74 41 46 51 75 43 133 -11 77 -77 108 -145 67z m88 -166 c0 -11 -7 -29 -15
-40 -8 -10 -15 -40 -15 -67 0 -41 -4 -49 -25 -59 -41 -18 -58 5 -50 67 5 40 3
55 -9 65 -16 12 -22 74 -10 103 9 24 124 -40 124 -69z m1400 -389 c0 -9 13
-24 30 -33 32 -18 41 -57 18 -80 -18 -18 -26 -15 -30 10 -3 20 -8 23 -41 20
-30 -3 -42 2 -67 26 -37 38 -38 52 -2 52 15 0 34 5 42 10 23 15 50 12 50 -5z
m876 -128 c-74 -140 -51 -128 -226 -113 -52 5 -93 6 -89 2 7 -7 246 -33 394
-42 123 -7 135 -11 135 -51 l0 -23 -360 0 -360 0 11 27 c6 15 7 48 4 74 l-6
46 43 6 c24 3 99 -3 168 -13 69 -9 128 -16 132 -13 4 2 46 58 93 123 77 108
88 119 106 109 19 -10 17 -16 -45 -132z m-716 29 c21 -27 -17 -239 -46 -250
-29 -11 -126 -4 -294 21 -53 8 -16 18 128 33 l122 13 0 76 c0 53 5 83 16 99
17 25 56 29 74 8z m-1317 -196 c69 -61 81 -103 73 -254 -6 -116 -22 -276 -29
-282 -1 -2 -28 0 -59 3 l-55 6 -7 60 c-3 33 -6 117 -6 186 l0 127 -106 62
-105 61 -55 -36 c-30 -20 -52 -38 -50 -40 3 -3 25 9 50 26 24 17 48 31 53 31
4 0 35 -16 68 -36 l60 -35 -127 2 -127 2 -56 -36 c-30 -21 -55 -38 -55 -40 -2
-40 -30 -330 -32 -332 -2 -1 -28 0 -60 2 l-56 5 -7 104 c-4 57 -6 148 -3 202
3 88 7 104 31 141 15 22 24 41 19 41 -4 0 -21 -20 -36 -45 l-29 -45 -131 0
c-156 0 -191 -8 -236 -55 l-35 -36 -3 -645 -2 -644 -155 0 -155 0 0 145 0 145
110 0 110 0 0 313 0 313 -110 116 -110 116 0 95 c0 90 1 97 33 143 20 30 49
57 77 71 44 24 47 24 371 23 312 -1 329 -1 367 19 38 19 58 21 266 21 139 0
227 4 231 10 11 18 32 10 78 -30z m715 -45 c11 -25 13 -25 137 -25 79 0 132 4
144 12 15 9 34 9 84 0 35 -7 92 -12 126 -12 51 0 66 4 85 23 l23 23 69 -24
c68 -23 73 -23 475 -22 l406 1 17 -26 16 -25 -1102 0 -1103 0 -22 50 -22 50
328 0 328 0 11 -25z m-808 -172 l0 -53 -215 0 -215 0 0 34 c0 27 7 39 38 62
36 28 41 29 187 34 190 6 205 1 205 -77z m-614 40 c-3 -21 -6 -50 -6 -64 0
-26 -2 -27 -78 -31 -88 -5 -129 -24 -158 -72 -18 -29 -19 -63 -22 -593 l-3
-563 -64 0 -65 0 0 628 c0 695 -2 668 65 712 27 18 48 20 184 20 l154 0 -7
-37z m3069 6 c19 -17 40 -47 45 -67 7 -23 10 -130 8 -282 l-3 -245 -752 -5
c-667 -4 -750 -3 -740 10 31 40 20 39 710 40 l667 0 0 180 0 179 -31 35 c-17
20 -47 40 -67 46 -24 6 -401 10 -1076 10 l-1039 0 7 46 c3 26 6 55 6 65 0 18
35 19 1115 19 l1114 0 36 -31z m-679 -234 c20 -31 8 -69 -25 -78 -22 -5 -29 7
-11 18 14 9 13 58 -2 73 -9 9 -8 12 5 12 9 0 24 -11 33 -25z m240 0 c19 -30
11 -58 -21 -73 -24 -11 -36 0 -15 13 14 9 13 58 -2 73 -9 9 -8 12 5 12 9 0 24
-11 33 -25z m205 15 c27 -15 25 -64 -3 -84 -33 -23 -41 -19 -21 10 13 21 15
32 6 55 -12 32 -11 34 18 19z m-487 -23 c13 -20 -2 -50 -27 -55 -22 -4 -34 43
-17 63 15 18 29 15 44 -8z m238 -2 c8 -19 8 -28 -2 -40 -28 -34 -58 -8 -46 40
8 32 33 32 48 0z m206 16 c22 -13 11 -66 -13 -66 -21 0 -32 32 -21 61 6 16 15
17 34 5z m-3308 -491 l0 -310 -315 0 -315 0 0 25 0 25 290 0 290 0 0 285 0
285 25 0 25 0 0 -310z m961 111 c19 -15 24 -29 24 -64 0 -79 6 -77 -281 -77
-289 0 -284 -1 -284 80 0 79 3 80 281 80 218 0 239 -1 260 -19z m3109 -16 c15
-8 38 -27 49 -41 21 -26 21 -33 21 -686 0 -651 0 -660 -21 -689 -42 -60 -53
-57 -99 27 l-41 75 -2 437 -2 437 -863 3 -862 2 2 -432 3 -433 554 -3 554 -2
53 -25 c29 -14 60 -25 68 -25 13 0 16 -12 16 -60 l0 -60 -659 0 c-443 0 -669
4 -688 11 -30 11 -73 47 -73 61 0 4 16 8 35 8 l36 0 -16 30 c-13 25 -15 118
-15 695 l0 666 23 9 c12 5 426 9 960 9 809 1 942 -1 967 -14z m-2395 -294 c22
-10 63 -38 90 -63 76 -67 95 -78 143 -78 49 0 75 11 115 48 l27 26 0 -36 c0
-66 -99 -128 -173 -107 -18 5 -62 34 -98 65 -81 70 -110 86 -165 86 -59 0 -90
-22 -177 -122 -88 -102 -135 -130 -220 -130 -50 0 -73 7 -153 46 -51 26 -113
49 -136 51 -91 10 -187 -40 -265 -138 -43 -56 -48 -59 -89 -59 -44 0 -44 0
-44 35 0 35 0 35 44 35 42 0 46 3 97 67 41 51 70 76 119 101 91 47 155 43 270
-17 156 -81 254 -65 361 60 82 96 117 128 152 138 47 13 58 13 102 -8z m-2
-85 c18 -7 61 -39 97 -70 78 -67 123 -84 180 -67 21 6 53 23 70 37 l30 26 0
-191 0 -191 -465 0 -465 0 -11 28 c-12 30 -44 68 -74 85 -12 8 -93 14 -208 17
l-188 5 48 59 c65 80 136 119 214 119 48 0 73 -7 155 -47 184 -89 257 -73 392
84 99 114 149 138 225 106z m1462 -403 c69 -37 123 -68 122 -69 -14 -9 -238
-135 -250 -140 -15 -6 -17 8 -17 135 0 94 4 141 11 141 6 0 66 -30 134 -67z
m-2875 42 c0 -13 47 -15 360 -15 400 0 404 -1 434 -64 9 -19 16 -55 16 -80 l0
-46 -785 0 -785 0 0 43 c0 67 18 113 56 146 l35 31 334 0 c291 0 335 -2 335
-15z m3254 -47 c3 -13 6 -40 6 -60 0 -31 4 -38 20 -38 31 0 24 -14 -15 -33
-44 -21 -59 -21 -75 -2 -9 11 -8 25 5 67 30 91 47 110 59 66z m288 -144 c15
-8 39 -30 54 -49 57 -75 22 -171 -73 -200 -34 -10 -27 8 9 25 106 50 76 186
-52 231 l-55 20 45 -7 c25 -3 57 -13 72 -20z m-2732 -244 c0 -189 2 -220 15
-220 13 0 15 -22 15 -134 0 -122 -2 -136 -23 -167 -48 -72 -18 -69 -741 -69
-587 0 -648 1 -642 16 3 9 6 24 6 35 0 18 5 19 93 13 116 -8 136 1 215 97 52
64 57 68 60 45 3 -23 8 -26 47 -26 24 0 46 4 49 9 3 5 6 60 7 122 1 63 6 119
11 126 13 17 -22 33 -71 33 l-41 0 0 -69 c0 -66 -2 -71 -32 -97 l-33 -27 -3
177 -2 176 -50 0 -50 0 0 -219 0 -220 -25 -19 c-16 -13 -33 -18 -47 -14 -13 3
-17 7 -10 10 9 3 12 49 12 178 l0 174 -50 0 -50 0 0 -166 0 -165 -22 7 c-66
20 -88 34 -88 55 0 13 12 35 26 50 21 22 26 38 29 86 1 33 8 70 14 81 10 19 8
23 -20 38 -31 16 -97 16 -146 -1 l-23 -7 0 149 c0 82 3 153 7 156 3 4 357 7
785 7 l778 0 0 -220z m2655 140 c32 0 40 -31 20 -70 -11 -20 -15 -50 -13 -83
2 -43 0 -52 -15 -55 -25 -5 -47 16 -47 44 0 16 -6 24 -17 24 -64 0 -70 104
-10 168 l21 23 19 -25 c11 -15 28 -26 42 -26z m-1965 -45 l0 -55 -320 0 -320
0 0 55 0 55 320 0 320 0 0 -55z m-2100 -305 c0 -41 -5 -55 -24 -73 -15 -14
-26 -37 -28 -57 -2 -30 -7 -35 -28 -35 -23 0 -24 3 -21 48 2 35 -2 54 -14 67
-22 24 -13 37 35 51 22 7 47 20 56 31 10 10 19 18 21 18 1 0 3 -23 3 -50z
m2414 -35 c10 -14 31 -35 49 -45 31 -19 56 -20 705 -20 l672 0 0 -25 0 -25
-1190 0 -1190 0 0 70 0 70 469 0 469 0 16 -25z m1436 -195 l0 -70 -704 0 -705
0 -3 28 -3 27 -350 0 -350 0 -3 -27 -3 -28 -141 0 -141 0 7 38 c3 20 6 52 6
70 l0 32 1195 0 1195 0 0 -70z m574 -201 c9 -47 7 -109 -3 -109 -5 0 -18 18
-28 40 -10 23 -23 38 -30 35 -14 -5 -16 8 -7 43 5 16 14 22 34 22 23 0 29 -5
34 -31z m-378 -4 l131 0 11 -270 c10 -239 15 -286 41 -405 17 -74 31 -141 31
-147 0 -9 -16 -13 -45 -13 -25 0 -45 1 -45 3 0 1 -18 65 -40 142 -44 153 -100
461 -100 549 0 31 -4 56 -10 56 -5 0 -10 -25 -10 -55 0 -30 -11 -123 -24 -207
-22 -139 -24 -171 -18 -346 l7 -192 -42 0 c-50 0 -45 -12 -74 185 -19 137 -21
173 -14 425 4 151 9 278 12 283 2 4 16 4 31 0 15 -5 86 -8 158 -8z m-4412
-211 c9 -25 7 -56 -4 -49 -5 3 -19 -9 -30 -27 l-20 -33 0 63 c0 59 1 62 24 62
13 0 27 -7 30 -16z m383 -88 c2 -1 11 -79 22 -172 l20 -169 -27 -207 -26 -208
-38 0 -38 0 0 201 c0 171 -3 213 -21 282 -15 60 -19 97 -15 137 13 110 -12 32
-42 -135 -18 -93 -51 -231 -75 -305 l-43 -135 -42 -3 c-23 -2 -42 0 -42 5 0 4
16 82 35 172 33 155 35 173 35 358 l0 195 148 -7 c81 -4 148 -8 149 -9z"/>
<path d="M3330 3181 c0 -35 3 -39 31 -45 17 -3 186 -6 375 -6 l344 0 0 30 c0
17 -4 30 -10 30 -5 0 -10 7 -10 15 0 13 -47 15 -365 15 l-365 0 0 -39z m710
19 c0 -6 -118 -10 -335 -10 -291 0 -335 -2 -335 -15 0 -8 -7 -15 -15 -15 -15
0 -21 31 -8 43 11 12 693 8 693 -3z"/>
<path d="M3065 3185 c-38 -37 -35 -95 6 -129 17 -14 41 -26 54 -26 13 0 37 12
54 26 25 21 31 33 31 65 0 80 -90 120 -145 64z"/>
<path d="M3330 3056 c0 -30 4 -34 31 -40 17 -3 299 -6 625 -6 l594 0 0 25 c0
16 -6 25 -15 25 -8 0 -15 7 -15 15 0 13 -74 15 -610 15 l-610 0 0 -34z m1200
14 c0 -7 -200 -10 -580 -10 -380 0 -580 -3 -580 -10 0 -5 -7 -10 -15 -10 -15
0 -21 21 -8 33 11 12 1183 8 1183 -3z"/>
<path d="M427 2523 c-14 -13 -7 -53 11 -62 37 -20 70 27 40 57 -13 13 -41 16
-51 5z"/>
<path d="M592 2518 c-18 -18 -14 -46 8 -58 28 -15 65 22 50 50 -12 22 -40 26
-58 8z"/>
<path d="M752 2518 c-30 -30 3 -77 40 -57 30 16 16 69 -17 69 -6 0 -16 -5 -23
-12z"/>
<path d="M1171 2244 c-75 -63 -30 -184 70 -184 71 0 121 68 99 134 -25 75
-109 101 -169 50z"/>
<path d="M1450 2170 c0 -20 5 -20 152 -18 136 3 153 5 156 21 3 16 -9 17 -152
17 -150 0 -156 -1 -156 -20z"/>
<path d="M1140 1969 c0 -57 5 -58 338 -59 292 0 302 1 302 19 0 11 -4 31 -10
45 l-10 26 -310 0 -310 0 0 -31z m610 1 c0 -6 -103 -10 -290 -10 -187 0 -290
-4 -290 -10 0 -5 -4 -10 -10 -10 -5 0 -10 9 -10 20 0 20 7 20 300 20 193 0
300 -4 300 -10z"/>
<path d="M1140 1856 c0 -26 5 -35 23 -40 12 -3 156 -6 320 -6 326 0 307 -4
291 58 l-6 22 -314 0 -314 0 0 -34z m610 14 c0 -6 -103 -10 -290 -10 -187 0
-290 -4 -290 -10 0 -5 -4 -10 -10 -10 -5 0 -10 9 -10 20 0 20 7 20 300 20 193
0 300 -4 300 -10z"/>
<path d="M1140 1757 c0 -56 11 -58 340 -55 322 3 313 1 291 61 l-11 27 -310 0
-310 0 0 -33z m323 6 c-251 -3 -293 -5 -293 -18 0 -8 -4 -15 -10 -15 -5 0 -10
9 -10 20 0 20 6 20 303 18 l302 -3 -292 -2z"/>
</g>
</svg>
